<svg width="167" height="40" viewBox="0 0 167 40" fill="none" xmlns="http://www.w3.org/2000/svg">
<g clip-path="url(#clip0_121_121)">
<path fill-rule="evenodd" clip-rule="evenodd" d="M25.5557 11.6853C23.9112 10.5865 21.9778 10 20 10V0C23.9556 0 27.8224 1.17298 31.1114 3.37061C34.4004 5.56823 36.9638 8.69181 38.4776 12.3463C39.9913 16.0008 40.3874 20.0222 39.6157 23.9018C38.844 27.7814 36.9392 31.3451 34.1421 34.1421C31.3451 36.9392 27.7814 38.844 23.9018 39.6157C20.0222 40.3874 16.0008 39.9913 12.3463 38.4776C8.69181 36.9638 5.56823 34.4004 3.37061 31.1114C1.17298 27.8224 0 23.9556 0 20H10C10 21.9778 10.5865 23.9112 11.6853 25.5557C12.7841 27.2002 14.3459 28.4819 16.1732 29.2388C18.0004 29.9957 20.0111 30.1937 21.9509 29.8078C23.8907 29.422 25.6725 28.4696 27.0711 27.0711C28.4696 25.6725 29.422 23.8907 29.8078 21.9509C30.1937 20.0111 29.9957 18.0004 29.2388 16.1732C28.4819 14.3459 27.2002 12.7841 25.5557 11.6853Z" fill="#022F5C"/>
<path fill-rule="evenodd" clip-rule="evenodd" d="M10 4.33125e-06C10 1.31322 9.74135 2.61358 9.2388 3.82683C8.73625 5.04009 7.99965 6.14248 7.07106 7.07107C6.14249 7.99966 5.04009 8.73625 3.82683 9.2388C2.61357 9.74134 1.31322 10 4.3711e-07 10L0 20C2.62644 20 5.22715 19.4827 7.65368 18.4776C10.0802 17.4725 12.285 15.9993 14.1421 14.1421C15.9993 12.285 17.4725 10.0802 18.4776 7.65367C19.4827 5.22715 20 2.62643 20 0L10 4.33125e-06Z" fill="#022F5C"/>
</g>
<path d="M64.46 16.16H63.86L62.92 13.86L59.7 13.82V25.84L61.56 26.02V26.5H55.18V26.02L57.04 25.84V13.82L53.82 13.86L52.88 16.16H52.3V13.14L58.38 13.1L64.46 13.14V16.16ZM69.8258 21.82C68.2791 21.82 67.3058 22.2267 66.9058 23.04C66.7324 23.3867 66.6458 23.82 66.6458 24.34C66.6458 25.2333 66.9524 25.7533 67.5658 25.9C67.6591 25.9267 67.7591 25.94 67.8658 25.94C68.2924 25.94 68.7191 25.72 69.1458 25.28C69.5724 24.8267 69.7991 24.2467 69.8258 23.54V21.82ZM66.6258 19.86C66.3324 20.06 66.0258 20.16 65.7058 20.16C65.3858 20.16 65.1124 20.0533 64.8858 19.84C64.6591 19.6267 64.5458 19.3133 64.5458 18.9C64.5458 18.4733 64.6724 18.0933 64.9258 17.76C65.1791 17.4267 65.5058 17.18 65.9058 17.02C66.6924 16.6867 67.4391 16.52 68.1458 16.52C69.7191 16.52 70.7924 16.8 71.3658 17.36C71.9391 17.9067 72.2258 18.7533 72.2258 19.9V25.92L73.9058 26.04V26.48L70.0858 26.72L69.9058 25.04C69.2791 26.1733 68.1991 26.74 66.6658 26.74C65.9724 26.74 65.3724 26.5333 64.8658 26.12C64.3724 25.6933 64.1258 25.1 64.1258 24.34C64.1391 23.3267 64.6458 22.5667 65.6458 22.06C66.6458 21.54 68.0391 21.28 69.8258 21.28V19.56C69.8258 18.7467 69.7124 18.12 69.4858 17.68C69.2591 17.24 68.8391 17.02 68.2258 17.02C67.6124 17.02 67.1524 17.2733 66.8458 17.78C66.6458 18.1133 66.5458 18.4667 66.5458 18.84C66.5458 19.2133 66.5724 19.5533 66.6258 19.86ZM79.3764 26.5H74.2164V26.04L75.5164 25.92V12.14L73.7964 12.08V11.6L78.0764 11.14V25.92L79.3764 26.04V26.5ZM87.2334 19.52C87.2334 17.8933 86.6668 17.08 85.5334 17.08C84.3468 17.08 83.6268 18.12 83.3734 20.2H87.1934C87.2201 19.9333 87.2334 19.7067 87.2334 19.52ZM85.3534 26.72C83.9268 26.72 82.7668 26.2533 81.8734 25.32C80.9934 24.3867 80.5534 23.1533 80.5534 21.62C80.5534 20.0867 81.0134 18.8533 81.9334 17.92C82.8668 16.9867 84.0468 16.52 85.4734 16.52C86.9001 16.52 87.9668 16.8267 88.6734 17.44C89.3801 18.04 89.7334 18.88 89.7334 19.96C89.7334 20.2667 89.7068 20.5867 89.6534 20.92H83.3134V21.62C83.3134 23.1133 83.5001 24.2467 83.8734 25.02C84.2468 25.78 84.8068 26.16 85.5534 26.16C86.3134 26.16 87.0001 26.0067 87.6134 25.7C88.2401 25.38 88.7268 24.9333 89.0734 24.36C89.3668 24.4533 89.5134 24.5933 89.5134 24.78C89.5134 25.1133 89.2001 25.5 88.5734 25.94C88.2668 26.1533 87.8268 26.34 87.2534 26.5C86.6934 26.6467 86.0601 26.72 85.3534 26.72ZM98.9961 25.92L99.1161 19.58C99.1161 18.7933 99.0161 18.22 98.8161 17.86C98.6161 17.5 98.2161 17.32 97.6161 17.32C97.0161 17.32 96.4294 17.68 95.8561 18.4C95.2961 19.1067 95.0028 19.72 94.9761 20.24V25.92L96.4761 26.04V26.5H91.1161V26.04L92.4361 25.92V17.4L90.7961 17.32V16.9L94.8961 16.66L94.7961 18.7H94.9961C95.3561 18.0333 95.8428 17.52 96.4561 17.16C97.0694 16.7867 97.7294 16.6 98.4361 16.6C100.569 16.6 101.636 17.6267 101.636 19.68C101.636 21.16 101.589 23.24 101.496 25.92L102.876 26.04V26.5H98.0361V26.04L98.9961 25.92ZM107.51 26.72C106.23 26.72 105.417 26.2733 105.07 25.38C104.924 24.9933 104.85 24.5067 104.85 23.92C104.85 21.7067 104.884 19.4867 104.95 17.26H103.59V16.74H104.97L104.99 13.8H107.55L107.49 16.74H110.29V17.26H107.49L107.45 18.88C107.41 21.04 107.39 23.02 107.39 24.82C107.39 25.34 107.444 25.6933 107.55 25.88C107.67 26.0667 107.877 26.16 108.17 26.16C108.477 26.16 108.81 25.9533 109.17 25.54C109.544 25.1133 109.81 24.6067 109.97 24.02C110.237 24.02 110.37 24.1133 110.37 24.3C110.37 24.34 110.364 24.3867 110.35 24.44C110.137 25.1333 109.77 25.6867 109.25 26.1C108.744 26.5133 108.164 26.72 107.51 26.72ZM115.632 19.52H116.312C118.446 19.52 119.512 18.5 119.512 16.46C119.512 15.4733 119.306 14.76 118.892 14.32C118.479 13.8667 117.826 13.64 116.932 13.64C116.359 13.64 115.926 13.6667 115.632 13.72V19.52ZM115.292 13.1L117.532 13.04C120.706 13.04 122.292 14.18 122.292 16.46C122.292 17.4733 121.932 18.3 121.212 18.94C120.492 19.58 119.566 19.9 118.432 19.9H117.972C119.492 20.1 120.532 20.56 121.092 21.28C121.666 22 121.952 23.0933 121.952 24.56C121.952 25.4667 122.139 26.02 122.512 26.22C122.646 26.3 122.839 26.34 123.092 26.34C123.359 26.34 123.719 26.2333 124.172 26.02L124.192 26.5C123.472 26.8067 122.739 26.96 121.992 26.96C120.499 26.96 119.599 26.4 119.292 25.28C119.186 24.8133 119.132 24.2333 119.132 23.54C119.132 22.8333 119.086 22.2933 118.992 21.92C118.912 21.5333 118.786 21.22 118.612 20.98C118.226 20.3933 117.499 20.1 116.432 20.1H115.632V25.84L117.152 26.02V26.5H111.512V26.02L112.992 25.86V13.76L111.272 13.52V13.02C112.392 13.0733 113.399 13.1 114.292 13.1H115.292ZM133.578 25.28C132.644 26.24 131.371 26.72 129.758 26.72C128.144 26.72 126.871 26.24 125.938 25.28C125.004 24.32 124.538 23.1 124.538 21.62C124.538 20.14 125.004 18.92 125.938 17.96C126.871 17 128.144 16.52 129.758 16.52C131.371 16.52 132.644 17 133.578 17.96C134.511 18.92 134.978 20.14 134.978 21.62C134.978 23.1 134.511 24.32 133.578 25.28ZM127.318 21.62C127.318 24.7 128.131 26.24 129.758 26.24C131.384 26.24 132.198 24.7 132.198 21.62C132.198 20.1133 132.018 18.9733 131.658 18.2C131.298 17.4133 130.664 17.02 129.758 17.02C128.851 17.02 128.218 17.4133 127.858 18.2C127.498 18.9733 127.318 20.1133 127.318 21.62ZM139.83 23.72C139.83 24.5067 139.923 25.08 140.11 25.44C140.31 25.8 140.703 25.98 141.29 25.98C141.877 25.98 142.457 25.6133 143.03 24.88C143.603 24.1467 143.89 23.5133 143.89 22.98V17.38L142.31 17.3V16.84L146.45 16.58V25.86L148.07 25.94V26.4L143.97 26.64L144.07 24.64H143.87C143.097 26.0133 141.977 26.7 140.51 26.7C138.377 26.7 137.31 25.6733 137.31 23.62C137.31 21.5667 137.383 19.4867 137.53 17.38L136.05 17.3V16.84L140.03 16.62C139.897 19.6333 139.83 22 139.83 23.72ZM152.53 26.72C151.25 26.72 150.437 26.2733 150.09 25.38C149.943 24.9933 149.87 24.5067 149.87 23.92C149.87 21.7067 149.903 19.4867 149.97 17.26H148.61V16.74H149.99L150.01 13.8H152.57L152.51 16.74H155.31V17.26H152.51L152.47 18.88C152.43 21.04 152.41 23.02 152.41 24.82C152.41 25.34 152.463 25.6933 152.57 25.88C152.69 26.0667 152.897 26.16 153.19 26.16C153.497 26.16 153.83 25.9533 154.19 25.54C154.563 25.1133 154.83 24.6067 154.99 24.02C155.257 24.02 155.39 24.1133 155.39 24.3C155.39 24.34 155.383 24.3867 155.37 24.44C155.157 25.1333 154.79 25.6867 154.27 26.1C153.763 26.5133 153.183 26.72 152.53 26.72ZM163.132 19.52C163.132 17.8933 162.565 17.08 161.432 17.08C160.245 17.08 159.525 18.12 159.272 20.2H163.092C163.119 19.9333 163.132 19.7067 163.132 19.52ZM161.252 26.72C159.825 26.72 158.665 26.2533 157.772 25.32C156.892 24.3867 156.452 23.1533 156.452 21.62C156.452 20.0867 156.912 18.8533 157.832 17.92C158.765 16.9867 159.945 16.52 161.372 16.52C162.799 16.52 163.865 16.8267 164.572 17.44C165.279 18.04 165.632 18.88 165.632 19.96C165.632 20.2667 165.605 20.5867 165.552 20.92H159.212V21.62C159.212 23.1133 159.399 24.2467 159.772 25.02C160.145 25.78 160.705 26.16 161.452 26.16C162.212 26.16 162.899 26.0067 163.512 25.7C164.139 25.38 164.625 24.9333 164.972 24.36C165.265 24.4533 165.412 24.5933 165.412 24.78C165.412 25.1133 165.099 25.5 164.472 25.94C164.165 26.1533 163.725 26.34 163.152 26.5C162.592 26.6467 161.959 26.72 161.252 26.72Z" fill="black"/>
<defs>
<clipPath id="clip0_121_121">
<rect width="40" height="40" fill="white"/>
</clipPath>
</defs>
</svg>
